<?xml version="1.0" standalone="no"?>
<!DOCTYPE svg PUBLIC "-//W3C//DTD SVG 20010904//EN"
 "http://www.w3.org/TR/2001/REC-SVG-20010904/DTD/svg10.dtd">
<svg version="1.0" xmlns="http://www.w3.org/2000/svg"
 width="260.000000pt" height="260.000000pt" viewBox="0 0 260.000000 260.000000"
 preserveAspectRatio="xMidYMid meet">
<metadata>
Created by potrace 1.14, written by Peter Selinger 2001-2017
</metadata>
<g transform="translate(0.000000,260.000000) scale(0.100000,-0.100000)"
fill="#000000" stroke="none">
<path d="M299 2590 c-39 -8 -85 -40 -105 -74 -17 -27 -19 -57 -22 -257 l-3
-227 -41 -5 c-47 -6 -87 -32 -105 -68 -13 -25 -19 -358 -7 -416 11 -55 94
-125 137 -116 16 4 17 -31 17 -634 0 -405 4 -651 10 -675 10 -35 63 -97 76
-90 4 2 10 -2 15 -9 5 -9 42 -13 131 -13 98 0 130 4 160 18 48 23 84 78 87
134 1 9 138 12 651 12 571 0 650 -2 651 -15 2 -16 5 -32 9 -40 1 -3 3 -8 5
-12 11 -40 58 -81 103 -90 43 -10 253 -7 261 3 3 5 18 15 32 23 24 12 43 39
57 81 3 8 7 292 8 630 2 338 3 629 4 645 0 25 4 31 25 33 35 3 90 41 112 77
16 26 18 57 20 229 2 135 -1 203 -8 213 -6 7 -8 13 -5 13 10 0 -45 54 -58 57
-6 2 -28 6 -50 10 l-38 8 0 218 c0 119 -4 217 -9 217 -5 0 -6 7 -3 15 4 8 1
15 -6 15 -6 0 -9 4 -6 8 6 11 -39 54 -74 73 -20 10 -225 13 -1016 13 -544 1
-1001 -1 -1015 -4z m1891 -916 c0 -770 3 -739 -72 -769 -57 -23 -505 -22 -550
1 -17 9 -96 82 -177 163 l-146 147 -373 2 c-359 1 -374 2 -407 22 -18 11 -38
34 -44 52 -7 21 -11 201 -11 548 l0 518 890 0 890 0 0 -684z m-1347 -1039 c78
-51 71 -176 -12 -213 -60 -27 -313 -24 -362 4 -60 35 -75 125 -31 182 30 39
81 49 236 47 118 -2 147 -5 169 -20z m1283 2 c43 -22 61 -54 61 -109 1 -57
-33 -101 -87 -115 -52 -14 -291 -9 -328 6 -17 7 -39 25 -49 40 -20 30 -30 111
-14 111 6 0 10 3 9 8 -4 20 19 46 53 61 54 24 308 23 355 -2z"/>
</g>
</svg>
