<svg viewBox="0 0 64 64" fill="none" xmlns="http://www.w3.org/2000/svg">
<path fill-rule="evenodd" clip-rule="evenodd" d="M8 0C5.79086 0 4 1.79086 4 4V13H3C1.34315 13 0 14.3431 0 16V28C0 29.6569 1.34315 31 3 31H4V54V55V60C4 62.2091 5.79086 64 8 64H12C14.2091 64 16 62.2091 16 60V59H48V60C48 62.2091 49.7909 64 52 64H56C58.2091 64 60 62.2091 60 60V55V54V31H61C62.6569 31 64 29.6569 64 28V16C64 14.3431 62.6569 13 61 13H60V4C60 1.79086 58.2091 0 56 0H8ZM12 6C10.8954 6 10 6.89543 10 8V30C10 31.1046 10.8954 32 12 32H32.0417L39.9451 38.5408C40.3038 38.8376 40.7547 39 41.2203 39H52C53.1046 39 54 38.1046 54 37V30V29V8C54 6.89543 53.1046 6 52 6H12ZM13 46C11.3431 46 10 47.3431 10 49C10 50.6569 11.3431 52 13 52H19C20.6569 52 22 50.6569 22 49C22 47.3431 20.6569 46 19 46H13ZM45 46C43.3431 46 42 47.3431 42 49C42 50.6569 43.3431 52 45 52H51C52.6569 52 54 50.6569 54 49C54 47.3431 52.6569 46 51 46H45Z" fill="url(#paint0_linear)"/>
<defs>
<linearGradient id="paint0_linear" x1="-1.35973e-07" y1="23" x2="64" y2="23" gradientUnits="userSpaceOnUse">
<stop stop-color="#248133"/>
<stop offset="1" stop-color="#6EB425"/>
</linearGradient>
</defs>
</svg>
